<svg width="80" height="80" viewBox="0 0 80 80" fill="none" xmlns="http://www.w3.org/2000/svg">
<path d="M45.1667 70C42.1667 70 39.6389 68.9722 37.5833 66.9167C35.5278 64.8611 34.5 62.3889 34.5 59.5C34.5 55.2778 36.2089 51.4578 39.6267 48.04C43.0444 44.6222 47.3078 42.4978 52.4167 41.6667C52.25 39.6667 51.75 38.1533 50.9167 37.1267C50.0833 36.1 48.9444 35.5856 47.5 35.5833C45.8333 35.5833 44.0278 36.2778 42.0833 37.6667C40.1389 39.0556 37.8333 41.3333 35.1667 44.5C30.8333 49.6667 27.6533 53.0278 25.6267 54.5833C23.6 56.1389 21.4189 56.9167 19.0833 56.9167C16.25 56.9167 13.8611 55.8611 11.9167 53.75C9.97222 51.6389 9 49.0833 9 46.0833C9 43.0833 9.65333 40.0144 10.96 36.8767C12.2667 33.7389 14.4744 29.9744 17.5833 25.5833C18.6389 24.1389 19.4167 22.9167 19.9167 21.9167C20.4167 20.9167 20.6667 20.1111 20.6667 19.5C20.6667 19.1111 20.5978 18.82 20.46 18.6267C20.3222 18.4333 20.1133 18.3356 19.8333 18.3333C19.2778 18.3333 18.5833 18.6811 17.75 19.3767C16.9167 20.0722 15.9444 21.1411 14.8333 22.5833L9 16.6667C10.7778 14.5 12.5833 12.8478 14.4167 11.71C16.25 10.5722 18.0556 10.0022 19.8333 10C22.3889 10 24.5556 10.8889 26.3333 12.6667C28.1111 14.4444 29 16.6667 29 19.3333C29 20.9444 28.5833 22.7222 27.75 24.6667C26.9167 26.6111 25.5278 28.9444 23.5833 31.6667C21.4722 34.6667 19.9033 37.3056 18.8767 39.5833C17.85 41.8611 17.3356 43.8611 17.3333 45.5833C17.3333 46.5278 17.4867 47.2644 17.7933 47.7933C18.1 48.3222 18.53 48.5856 19.0833 48.5833C19.6389 48.5833 20.1256 48.4311 20.5433 48.1267C20.9611 47.8222 21.7244 47.0856 22.8333 45.9167C23.5556 45.1389 24.4167 44.1811 25.4167 43.0433C26.4167 41.9056 27.6389 40.5022 29.0833 38.8333C32.5833 34.6667 35.75 31.6944 38.5833 29.9167C41.4167 28.1389 44.3889 27.25 47.5 27.25C51.2222 27.25 54.2778 28.5 56.6667 31C59.0556 33.5 60.4167 36.9167 60.75 41.25H69V49.5833H60.75C60.3056 55.8056 58.6811 60.7633 55.8767 64.4567C53.0722 68.15 49.5022 69.9978 45.1667 70ZM45.3333 61.6667C47.1111 61.6667 48.6111 60.6522 49.8333 58.6233C51.0556 56.5944 51.8889 53.7756 52.3333 50.1667C49.7778 50.7778 47.5556 51.9867 45.6667 53.7933C43.7778 55.6 42.8333 57.3911 42.8333 59.1667C42.8333 59.9444 43.0556 60.5556 43.5 61C43.9444 61.4444 44.5556 61.6667 45.3333 61.6667Z" fill="#1F2223"/>
<path d="M58.1875 22.8125C59.6458 24.2708 61.4167 25 63.5 25C65.5833 25 67.3542 24.2708 68.8125 22.8125C70.2708 21.3542 71 19.5833 71 17.5C71 15.4167 70.2708 13.6458 68.8125 12.1875C67.3542 10.7292 65.5833 10 63.5 10C61.4167 10 59.6458 10.7292 58.1875 12.1875C56.7292 13.6458 56 15.4167 56 17.5C56 19.5833 56.7292 21.3542 58.1875 22.8125Z" fill="#1F2223"/>
</svg>
