<svg width="205" height="40" viewBox="0 0 205 40" fill="none" xmlns="http://www.w3.org/2000/svg">
<path d="M24.1111 40C22.1111 40 20.4259 39.3148 19.0556 37.9444C17.6852 36.5741 17 34.9259 17 33C17 30.1852 18.1393 27.6385 20.4178 25.36C22.6963 23.0815 25.5385 21.6652 28.9444 21.1111C28.8333 19.7778 28.5 18.7689 27.9444 18.0844C27.3889 17.4 26.6296 17.057 25.6667 17.0556C24.5556 17.0556 23.3519 17.5185 22.0556 18.4444C20.7593 19.3704 19.2222 20.8889 17.4444 23C14.5556 26.4444 12.4356 28.6852 11.0844 29.7222C9.73333 30.7593 8.27926 31.2778 6.72222 31.2778C4.83333 31.2778 3.24074 30.5741 1.94444 29.1667C0.648148 27.7593 0 26.0556 0 24.0556C0 22.0556 0.435556 20.0096 1.30667 17.9178C2.17778 15.8259 3.64963 13.3163 5.72222 10.3889C6.42593 9.42593 6.94445 8.61111 7.27778 7.94444C7.61111 7.27778 7.77778 6.74074 7.77778 6.33333C7.77778 6.07407 7.73185 5.88 7.64 5.75111C7.54815 5.62222 7.40889 5.55704 7.22222 5.55556C6.85185 5.55556 6.38889 5.78741 5.83333 6.25111C5.27778 6.71482 4.62963 7.42741 3.88889 8.38889L0 4.44444C1.18519 3 2.38889 1.89852 3.61111 1.14C4.83333 0.381481 6.03704 0.00148148 7.22222 0C8.92593 0 10.3704 0.592592 11.5556 1.77778C12.7407 2.96296 13.3333 4.44444 13.3333 6.22222C13.3333 7.2963 13.0556 8.48148 12.5 9.77778C11.9444 11.0741 11.0185 12.6296 9.72222 14.4444C8.31482 16.4444 7.26889 18.2037 6.58444 19.7222C5.9 21.2407 5.55704 22.5741 5.55556 23.7222C5.55556 24.3519 5.65778 24.843 5.86222 25.1956C6.06667 25.5481 6.35333 25.7237 6.72222 25.7222C7.09259 25.7222 7.41704 25.6207 7.69556 25.4178C7.97407 25.2148 8.48296 24.7237 9.22222 23.9444C9.7037 23.4259 10.2778 22.7874 10.9444 22.0289C11.6111 21.2704 12.4259 20.3348 13.3889 19.2222C15.7222 16.4444 17.8333 14.463 19.7222 13.2778C21.6111 12.0926 23.5926 11.5 25.6667 11.5C28.1482 11.5 30.1852 12.3333 31.7778 14C33.3704 15.6667 34.2778 17.9444 34.5 20.8333H40V26.3889H34.5C34.2037 30.537 33.1207 33.8422 31.2511 36.3044C29.3815 38.7667 27.0015 39.9985 24.1111 40ZM24.2222 34.4444C25.4074 34.4444 26.4074 33.7681 27.2222 32.4156C28.037 31.063 28.5926 29.1837 28.8889 26.7778C27.1852 27.1852 25.7037 27.9911 24.4444 29.1956C23.1852 30.4 22.5556 31.5941 22.5556 32.7778C22.5556 33.2963 22.7037 33.7037 23 34C23.2963 34.2963 23.7037 34.4444 24.2222 34.4444Z" fill="#1F2223"/>
<path d="M200.655 8.38691C199.655 8.38691 198.833 8.09811 198.189 7.52051C197.567 6.9207 197.256 6.1876 197.256 5.3212C197.256 4.43259 197.567 3.69948 198.189 3.12189C198.833 2.52207 199.655 2.22217 200.655 2.22217C201.632 2.22217 202.432 2.52207 203.054 3.12189C203.698 3.69948 204.02 4.43259 204.02 5.3212C204.02 6.1876 203.698 6.9207 203.054 7.52051C202.432 8.09811 201.632 8.38691 200.655 8.38691ZM203.487 10.3196V28.9138H197.789V10.3196H203.487Z" fill="#1F2223"/>
<path d="M192.37 8.38691C191.37 8.38691 190.548 8.09811 189.904 7.52051C189.282 6.9207 188.971 6.1876 188.971 5.3212C188.971 4.43259 189.282 3.69948 189.904 3.12189C190.548 2.52207 191.37 2.22217 192.37 2.22217C193.347 2.22217 194.147 2.52207 194.769 3.12189C195.413 3.69948 195.736 4.43259 195.736 5.3212C195.736 6.1876 195.413 6.9207 194.769 7.52051C194.147 8.09811 193.347 8.38691 192.37 8.38691ZM195.236 31.3131C195.236 33.6013 194.658 35.2452 193.503 36.2449C192.348 37.2668 190.737 37.7777 188.671 37.7777H186.438V32.9459H187.805C188.427 32.9459 188.871 32.8237 189.138 32.5793C189.404 32.335 189.538 31.9351 189.538 31.3797V10.3196H195.236V31.3131Z" fill="#1F2223"/>
<path d="M178.327 29.1801C176.506 29.1801 174.862 28.7913 173.396 28.0138C171.952 27.2363 170.808 26.1255 169.963 24.6815C169.141 23.2375 168.73 21.5491 168.73 19.6164C168.73 17.7059 169.153 16.0286 169.997 14.5847C170.841 13.1184 171.996 11.9966 173.462 11.219C174.929 10.4415 176.572 10.0527 178.394 10.0527C180.216 10.0527 181.86 10.4415 183.326 11.219C184.792 11.9966 185.947 13.1184 186.791 14.5847C187.636 16.0286 188.058 17.7059 188.058 19.6164C188.058 21.5269 187.625 23.2153 186.758 24.6815C185.914 26.1255 184.748 27.2363 183.259 28.0138C181.793 28.7913 180.149 29.1801 178.327 29.1801ZM178.327 24.2483C179.416 24.2483 180.338 23.8484 181.093 23.0487C181.871 22.2489 182.26 21.1048 182.26 19.6164C182.26 18.128 181.882 16.9839 181.127 16.1842C180.393 15.3844 179.483 14.9845 178.394 14.9845C177.283 14.9845 176.361 15.3844 175.628 16.1842C174.895 16.9617 174.529 18.1058 174.529 19.6164C174.529 21.1048 174.884 22.2489 175.595 23.0487C176.328 23.8484 177.239 24.2483 178.327 24.2483Z" fill="#1F2223"/>
<path d="M166.871 5.521V28.9137H161.172V14.8847L155.941 28.9137H151.342L146.077 14.8514V28.9137H140.379V5.521H147.11L153.675 21.7159L160.173 5.521H166.871Z" fill="#1F2223"/>
<path d="M139.423 10.3193L127.76 37.7441H121.629L125.894 28.2804L118.33 10.3193H124.694L128.993 21.949L133.258 10.3193H139.423Z" fill="#1F2223"/>
<path d="M111.664 13.4186C112.331 12.3967 113.164 11.5969 114.163 11.0193C115.163 10.4195 116.274 10.1196 117.496 10.1196V16.1511H115.929C114.508 16.1511 113.441 16.4621 112.73 17.0841C112.019 17.6839 111.664 18.7503 111.664 20.2831V28.9138H105.966V10.3196H111.664V13.4186Z" fill="#1F2223"/>
<path d="M95.1937 29.1801C93.372 29.1801 91.7281 28.7913 90.2619 28.0138C88.8179 27.2363 87.6738 26.1255 86.8296 24.6815C86.0077 23.2375 85.5967 21.5491 85.5967 19.6164C85.5967 17.7059 86.0188 16.0286 86.863 14.5847C87.7071 13.1184 88.8623 11.9966 90.3285 11.219C91.7947 10.4415 93.4387 10.0527 95.2603 10.0527C97.082 10.0527 98.7259 10.4415 100.192 11.219C101.658 11.9966 102.814 13.1184 103.658 14.5847C104.502 16.0286 104.924 17.7059 104.924 19.6164C104.924 21.5269 104.491 23.2153 103.624 24.6815C102.78 26.1255 101.614 27.2363 100.125 28.0138C98.6593 28.7913 97.0153 29.1801 95.1937 29.1801ZM95.1937 24.2483C96.2822 24.2483 97.2042 23.8484 97.9595 23.0487C98.737 22.2489 99.1258 21.1048 99.1258 19.6164C99.1258 18.128 98.7481 16.9839 97.9928 16.1842C97.2597 15.3844 96.3489 14.9845 95.2603 14.9845C94.1496 14.9845 93.2276 15.3844 92.4945 16.1842C91.7614 16.9617 91.3949 18.1058 91.3949 19.6164C91.3949 21.1048 91.7503 22.2489 92.4612 23.0487C93.1943 23.8484 94.1051 24.2483 95.1937 24.2483Z" fill="#1F2223"/>
<path d="M85.0993 24.0819V28.9137H82.2002C80.1342 28.9137 78.5236 28.4139 77.3684 27.4142C76.2132 26.3923 75.6356 24.7372 75.6356 22.4491V15.0514H73.3696V10.3195H75.6356V5.7876H81.3338V10.3195H85.066V15.0514H81.3338V22.5157C81.3338 23.0711 81.4671 23.471 81.7337 23.7153C82.0003 23.9597 82.4446 24.0819 83.0666 24.0819H85.0993Z" fill="#1F2223"/>
<path d="M64.2418 29.1472C62.5312 29.1472 60.9984 28.8695 59.6432 28.3141C58.2881 27.7587 57.1996 26.9367 56.3776 25.8482C55.5778 24.7596 55.1558 23.4489 55.1113 21.9161H61.1761C61.265 22.7825 61.5649 23.4489 62.0758 23.9155C62.5868 24.3598 63.2532 24.5819 64.0752 24.5819C64.9194 24.5819 65.5858 24.3931 66.0746 24.0154C66.5633 23.6156 66.8077 23.0713 66.8077 22.3826C66.8077 21.805 66.6077 21.3274 66.2079 20.9497C65.8302 20.5721 65.3526 20.2611 64.775 20.0167C64.2196 19.7723 63.4198 19.4946 62.3757 19.1836C60.8651 18.7171 59.6321 18.2506 58.6769 17.7841C57.7216 17.3175 56.8997 16.6289 56.211 15.718C55.5223 14.8072 55.178 13.6187 55.178 12.1525C55.178 9.97538 55.9666 8.27591 57.5439 7.05407C59.1212 5.81002 61.1761 5.18799 63.7086 5.18799C66.2856 5.18799 68.3627 5.81002 69.94 7.05407C71.5173 8.27591 72.3615 9.98649 72.4726 12.1858H66.3078C66.2634 11.4305 65.9857 10.8418 65.4748 10.4197C64.9638 9.97538 64.3085 9.75323 63.5087 9.75323C62.82 9.75323 62.2646 9.94206 61.8426 10.3197C61.4205 10.6752 61.2094 11.1972 61.2094 11.8859C61.2094 12.6412 61.5649 13.2299 62.2758 13.652C62.9866 14.0741 64.0974 14.5295 65.608 15.0182C67.1187 15.5292 68.3405 16.0179 69.2736 16.4845C70.2288 16.951 71.0508 17.6285 71.7395 18.5172C72.4281 19.4058 72.7725 20.5499 72.7725 21.9494C72.7725 23.2823 72.4281 24.4931 71.7395 25.5816C71.073 26.6702 70.0955 27.5366 68.807 28.1808C67.5186 28.825 65.9968 29.1472 64.2418 29.1472Z" fill="#1F2223"/>
</svg>
